<svg xmlns="http://www.w3.org/2000/svg" viewBox="0 0 1200 800" role="img" aria-label="Architectural plate"><rect width="1200" height="800" fill="#F5F5F5"/><line x1="0" y1="552" x2="1200" y2="552" stroke="#8C8C8C" stroke-width="2"/><rect x="63" y="52" width="286" height="500" fill="#000000" stroke="#000000" stroke-width="3"/><rect x="110.2" y="123.3" width="20" height="24" fill="#F5F5F5" stroke="#F5F5F5" stroke-width="1.5"/><rect x="110.2" y="206.7" width="20" height="24" fill="#F5F5F5" stroke="#F5F5F5" stroke-width="1.5"/><rect x="110.2" y="290.0" width="20" height="24" fill="#F5F5F5" stroke="#F5F5F5" stroke-width="1.5"/><rect x="110.2" y="373.3" width="20" height="24" fill="#F5F5F5" stroke="#F5F5F5" stroke-width="1.5"/><rect x="167.4" y="206.7" width="20" height="24" fill="#F5F5F5" stroke="#F5F5F5" stroke-width="1.5"/><rect x="224.6" y="123.3" width="20" height="24" fill="#F5F5F5" stroke="#F5F5F5" stroke-width="1.5"/><rect x="224.6" y="206.7" width="20" height="24" fill="#F5F5F5" stroke="#F5F5F5" stroke-width="1.5"/><rect x="224.6" y="290.0" width="20" height="24" fill="#F5F5F5" stroke="#F5F5F5" stroke-width="1.5"/><rect x="224.6" y="373.3" width="20" height="24" fill="#F5F5F5" stroke="#F5F5F5" stroke-width="1.5"/><rect x="224.6" y="456.7" width="20" height="24" fill="#F5F5F5" stroke="#F5F5F5" stroke-width="1.5"/><rect x="281.8" y="123.3" width="20" height="24" fill="#F5F5F5" stroke="#F5F5F5" stroke-width="1.5"/><rect x="281.8" y="206.7" width="20" height="24" fill="#F5F5F5" stroke="#F5F5F5" stroke-width="1.5"/><rect x="281.8" y="290.0" width="20" height="24" fill="#F5F5F5" stroke="#F5F5F5" stroke-width="1.5"/><rect x="281.8" y="456.7" width="20" height="24" fill="#F5F5F5" stroke="#F5F5F5" stroke-width="1.5"/><line x1="49" y1="52" x2="363" y2="52" stroke="#000000" stroke-width="4"/><rect x="432" y="38" width="223" height="514" fill="#000000" stroke="#000000" stroke-width="3"/><rect x="453.9" y="83.1" width="20" height="24" fill="#F5F5F5" stroke="#F5F5F5" stroke-width="1.5"/><rect x="453.9" y="140.2" width="20" height="24" fill="#F5F5F5" stroke="#F5F5F5" stroke-width="1.5"/><rect x="453.9" y="197.3" width="20" height="24" fill="#F5F5F5" stroke="#F5F5F5" stroke-width="1.5"/><rect x="453.9" y="311.6" width="20" height="24" fill="#F5F5F5" stroke="#F5F5F5" stroke-width="1.5"/><rect x="453.9" y="368.7" width="20" height="24" fill="#F5F5F5" stroke="#F5F5F5" stroke-width="1.5"/><rect x="453.9" y="425.8" width="20" height="24" fill="#F5F5F5" stroke="#F5F5F5" stroke-width="1.5"/><rect x="485.7" y="83.1" width="20" height="24" fill="#F5F5F5" stroke="#F5F5F5" stroke-width="1.5"/><rect x="485.7" y="140.2" width="20" height="24" fill="#F5F5F5" stroke="#F5F5F5" stroke-width="1.5"/><rect x="485.7" y="197.3" width="20" height="24" fill="#F5F5F5" stroke="#F5F5F5" stroke-width="1.5"/><rect x="485.7" y="254.4" width="20" height="24" fill="#F5F5F5" stroke="#F5F5F5" stroke-width="1.5"/><rect x="485.7" y="311.6" width="20" height="24" fill="#F5F5F5" stroke="#F5F5F5" stroke-width="1.5"/><rect x="485.7" y="482.9" width="20" height="24" fill="#F5F5F5" stroke="#F5F5F5" stroke-width="1.5"/><rect x="517.6" y="83.1" width="20" height="24" fill="#F5F5F5" stroke="#F5F5F5" stroke-width="1.5"/><rect x="517.6" y="140.2" width="20" height="24" fill="#F5F5F5" stroke="#F5F5F5" stroke-width="1.5"/><rect x="517.6" y="197.3" width="20" height="24" fill="#F5F5F5" stroke="#F5F5F5" stroke-width="1.5"/><rect x="517.6" y="254.4" width="20" height="24" fill="#F5F5F5" stroke="#F5F5F5" stroke-width="1.5"/><rect x="517.6" y="311.6" width="20" height="24" fill="#F5F5F5" stroke="#F5F5F5" stroke-width="1.5"/><rect x="517.6" y="368.7" width="20" height="24" fill="#F5F5F5" stroke="#F5F5F5" stroke-width="1.5"/><rect x="517.6" y="482.9" width="20" height="24" fill="#F5F5F5" stroke="#F5F5F5" stroke-width="1.5"/><rect x="549.4" y="140.2" width="20" height="24" fill="#F5F5F5" stroke="#F5F5F5" stroke-width="1.5"/><rect x="549.4" y="197.3" width="20" height="24" fill="#F5F5F5" stroke="#F5F5F5" stroke-width="1.5"/><rect x="549.4" y="254.4" width="20" height="24" fill="#F5F5F5" stroke="#F5F5F5" stroke-width="1.5"/><rect x="549.4" y="368.7" width="20" height="24" fill="#F5F5F5" stroke="#F5F5F5" stroke-width="1.5"/><rect x="549.4" y="425.8" width="20" height="24" fill="#F5F5F5" stroke="#F5F5F5" stroke-width="1.5"/><rect x="549.4" y="482.9" width="20" height="24" fill="#F5F5F5" stroke="#F5F5F5" stroke-width="1.5"/><rect x="581.3" y="83.1" width="20" height="24" fill="#F5F5F5" stroke="#F5F5F5" stroke-width="1.5"/><rect x="581.3" y="140.2" width="20" height="24" fill="#F5F5F5" stroke="#F5F5F5" stroke-width="1.5"/><rect x="581.3" y="197.3" width="20" height="24" fill="#F5F5F5" stroke="#F5F5F5" stroke-width="1.5"/><rect x="581.3" y="425.8" width="20" height="24" fill="#F5F5F5" stroke="#F5F5F5" stroke-width="1.5"/><rect x="581.3" y="482.9" width="20" height="24" fill="#F5F5F5" stroke="#F5F5F5" stroke-width="1.5"/><rect x="613.1" y="83.1" width="20" height="24" fill="#F5F5F5" stroke="#F5F5F5" stroke-width="1.5"/><rect x="613.1" y="197.3" width="20" height="24" fill="#F5F5F5" stroke="#F5F5F5" stroke-width="1.5"/><rect x="613.1" y="425.8" width="20" height="24" fill="#F5F5F5" stroke="#F5F5F5" stroke-width="1.5"/><rect x="613.1" y="482.9" width="20" height="24" fill="#F5F5F5" stroke="#F5F5F5" stroke-width="1.5"/><line x1="418" y1="38" x2="669" y2="38" stroke="#000000" stroke-width="4"/><rect x="722" y="315" width="416" height="237" fill="#000000" stroke="#000000" stroke-width="3"/><rect x="781.3" y="342.5" width="20" height="24" fill="#F5F5F5" stroke="#F5F5F5" stroke-width="1.5"/><rect x="781.3" y="382.0" width="20" height="24" fill="#F5F5F5" stroke="#F5F5F5" stroke-width="1.5"/><rect x="781.3" y="500.5" width="20" height="24" fill="#F5F5F5" stroke="#F5F5F5" stroke-width="1.5"/><rect x="850.7" y="382.0" width="20" height="24" fill="#F5F5F5" stroke="#F5F5F5" stroke-width="1.5"/><rect x="850.7" y="421.5" width="20" height="24" fill="#F5F5F5" stroke="#F5F5F5" stroke-width="1.5"/><rect x="850.7" y="461.0" width="20" height="24" fill="#F5F5F5" stroke="#F5F5F5" stroke-width="1.5"/><rect x="850.7" y="500.5" width="20" height="24" fill="#F5F5F5" stroke="#F5F5F5" stroke-width="1.5"/><rect x="920.0" y="342.5" width="20" height="24" fill="#F5F5F5" stroke="#F5F5F5" stroke-width="1.5"/><rect x="920.0" y="382.0" width="20" height="24" fill="#F5F5F5" stroke="#F5F5F5" stroke-width="1.5"/><rect x="920.0" y="421.5" width="20" height="24" fill="#F5F5F5" stroke="#F5F5F5" stroke-width="1.5"/><rect x="920.0" y="461.0" width="20" height="24" fill="#F5F5F5" stroke="#F5F5F5" stroke-width="1.5"/><rect x="989.3" y="421.5" width="20" height="24" fill="#F5F5F5" stroke="#F5F5F5" stroke-width="1.5"/><rect x="989.3" y="461.0" width="20" height="24" fill="#F5F5F5" stroke="#F5F5F5" stroke-width="1.5"/><rect x="989.3" y="500.5" width="20" height="24" fill="#F5F5F5" stroke="#F5F5F5" stroke-width="1.5"/><rect x="1058.7" y="342.5" width="20" height="24" fill="#F5F5F5" stroke="#F5F5F5" stroke-width="1.5"/><rect x="1058.7" y="382.0" width="20" height="24" fill="#F5F5F5" stroke="#F5F5F5" stroke-width="1.5"/><line x1="708" y1="315" x2="1152" y2="315" stroke="#000000" stroke-width="4"/><path d="M 642 552 C 648 453, 636 413.4, 646 354" stroke="#000000" stroke-width="5" fill="none"/><path d="M 646 354 Q 622.3125129542007 330, 599 328" stroke="#000000" stroke-width="3" fill="none"/><path d="M 646 354 Q 645.1298538072248 330, 644 310" stroke="#000000" stroke-width="3" fill="none"/><path d="M 646 354 Q 667.8285869501817 330, 690 328" stroke="#000000" stroke-width="3" fill="none"/><path d="M 646 354 Q 677.5203635522005 330, 709 367" stroke="#000000" stroke-width="3" fill="none"/><path d="M 646 354 Q 653.4987758826161 330, 661 399" stroke="#000000" stroke-width="3" fill="none"/><path d="M 646 354 Q 624.387513387022 330, 603 389" stroke="#000000" stroke-width="3" fill="none"/><path d="M 1090 552 C 1096 460.5, 1084 423.9, 1094 369" stroke="#000000" stroke-width="5" fill="none"/><path d="M 1094 369 Q 1068.4862961466943 345, 1043 356" stroke="#000000" stroke-width="3" fill="none"/><path d="M 1094 369 Q 1091.061631159211 345, 1088 328" stroke="#000000" stroke-width="3" fill="none"/><path d="M 1094 369 Q 1122.7759419589297 345, 1152 346" stroke="#000000" stroke-width="3" fill="none"/><path d="M 1094 369 Q 1120.4161414882215 345, 1147 373" stroke="#000000" stroke-width="3" fill="none"/><path d="M 1094 369 Q 1099.496742690309 345, 1105 400" stroke="#000000" stroke-width="3" fill="none"/><path d="M 1094 369 Q 1073.7891650328875 345, 1054 402" stroke="#000000" stroke-width="3" fill="none"/><line x1="233" y1="585" x2="655" y2="585" stroke="#8C8C8C" stroke-width="2"/><line x1="177" y1="609" x2="612" y2="609" stroke="#EAEAEA" stroke-width="2"/><line x1="73" y1="649" x2="609" y2="649" stroke="#8C8C8C" stroke-width="2"/><line x1="219" y1="680" x2="866" y2="680" stroke="#EAEAEA" stroke-width="2"/><line x1="59" y1="704" x2="609" y2="704" stroke="#8C8C8C" stroke-width="2"/><line x1="230" y1="739" x2="970" y2="739" stroke="#EAEAEA" stroke-width="2"/><line x1="166" y1="768" x2="742" y2="768" stroke="#8C8C8C" stroke-width="2"/><circle cx="481" cy="208" r="53" fill="none" stroke="#8C8C8C" stroke-width="3"/></svg>