<svg xmlns="http://www.w3.org/2000/svg" viewBox="0 0 1200 800" role="img" aria-label="Architectural plate"><rect width="1200" height="800" fill="#F5F5F5"/><line x1="0" y1="590" x2="1200" y2="590" stroke="#8C8C8C" stroke-width="2"/><rect x="87" y="102" width="329" height="488" fill="#000000" stroke="#000000" stroke-width="3"/><rect x="142.8" y="171.3" width="20" height="24" fill="#F5F5F5" stroke="#F5F5F5" stroke-width="1.5"/><rect x="142.8" y="252.7" width="20" height="24" fill="#F5F5F5" stroke="#F5F5F5" stroke-width="1.5"/><rect x="142.8" y="334.0" width="20" height="24" fill="#F5F5F5" stroke="#F5F5F5" stroke-width="1.5"/><rect x="142.8" y="415.3" width="20" height="24" fill="#F5F5F5" stroke="#F5F5F5" stroke-width="1.5"/><rect x="142.8" y="496.7" width="20" height="24" fill="#F5F5F5" stroke="#F5F5F5" stroke-width="1.5"/><rect x="208.6" y="171.3" width="20" height="24" fill="#F5F5F5" stroke="#F5F5F5" stroke-width="1.5"/><rect x="208.6" y="252.7" width="20" height="24" fill="#F5F5F5" stroke="#F5F5F5" stroke-width="1.5"/><rect x="208.6" y="334.0" width="20" height="24" fill="#F5F5F5" stroke="#F5F5F5" stroke-width="1.5"/><rect x="208.6" y="496.7" width="20" height="24" fill="#F5F5F5" stroke="#F5F5F5" stroke-width="1.5"/><rect x="274.4" y="252.7" width="20" height="24" fill="#F5F5F5" stroke="#F5F5F5" stroke-width="1.5"/><rect x="274.4" y="334.0" width="20" height="24" fill="#F5F5F5" stroke="#F5F5F5" stroke-width="1.5"/><rect x="274.4" y="415.3" width="20" height="24" fill="#F5F5F5" stroke="#F5F5F5" stroke-width="1.5"/><rect x="340.2" y="171.3" width="20" height="24" fill="#F5F5F5" stroke="#F5F5F5" stroke-width="1.5"/><rect x="340.2" y="252.7" width="20" height="24" fill="#F5F5F5" stroke="#F5F5F5" stroke-width="1.5"/><rect x="340.2" y="334.0" width="20" height="24" fill="#F5F5F5" stroke="#F5F5F5" stroke-width="1.5"/><rect x="340.2" y="415.3" width="20" height="24" fill="#F5F5F5" stroke="#F5F5F5" stroke-width="1.5"/><rect x="340.2" y="496.7" width="20" height="24" fill="#F5F5F5" stroke="#F5F5F5" stroke-width="1.5"/><line x1="73" y1="102" x2="430" y2="102" stroke="#000000" stroke-width="4"/><rect x="482" y="374" width="308" height="216" fill="none" stroke="#000000" stroke-width="3"/><rect x="549.0" y="389.0" width="20" height="24" fill="none" stroke="#8C8C8C" stroke-width="1.5"/><rect x="549.0" y="443.0" width="20" height="24" fill="none" stroke="#8C8C8C" stroke-width="1.5"/><rect x="549.0" y="470.0" width="20" height="24" fill="none" stroke="#8C8C8C" stroke-width="1.5"/><rect x="549.0" y="551.0" width="20" height="24" fill="none" stroke="#8C8C8C" stroke-width="1.5"/><rect x="626.0" y="416.0" width="20" height="24" fill="none" stroke="#8C8C8C" stroke-width="1.5"/><rect x="626.0" y="443.0" width="20" height="24" fill="none" stroke="#8C8C8C" stroke-width="1.5"/><rect x="626.0" y="470.0" width="20" height="24" fill="none" stroke="#8C8C8C" stroke-width="1.5"/><rect x="626.0" y="497.0" width="20" height="24" fill="none" stroke="#8C8C8C" stroke-width="1.5"/><rect x="626.0" y="524.0" width="20" height="24" fill="none" stroke="#8C8C8C" stroke-width="1.5"/><rect x="626.0" y="551.0" width="20" height="24" fill="none" stroke="#8C8C8C" stroke-width="1.5"/><rect x="703.0" y="389.0" width="20" height="24" fill="#000000" stroke="#8C8C8C" stroke-width="1.5"/><rect x="703.0" y="416.0" width="20" height="24" fill="none" stroke="#8C8C8C" stroke-width="1.5"/><rect x="703.0" y="497.0" width="20" height="24" fill="none" stroke="#8C8C8C" stroke-width="1.5"/><rect x="703.0" y="524.0" width="20" height="24" fill="#000000" stroke="#8C8C8C" stroke-width="1.5"/><rect x="703.0" y="551.0" width="20" height="24" fill="#000000" stroke="#8C8C8C" stroke-width="1.5"/><line x1="468" y1="374" x2="804" y2="374" stroke="#000000" stroke-width="4"/><rect x="867" y="338" width="398" height="252" fill="none" stroke="#000000" stroke-width="3"/><rect x="936.6" y="354.0" width="20" height="24" fill="#000000" stroke="#8C8C8C" stroke-width="1.5"/><rect x="936.6" y="382.0" width="20" height="24" fill="none" stroke="#8C8C8C" stroke-width="1.5"/><rect x="936.6" y="410.0" width="20" height="24" fill="#000000" stroke="#8C8C8C" stroke-width="1.5"/><rect x="936.6" y="438.0" width="20" height="24" fill="none" stroke="#8C8C8C" stroke-width="1.5"/><rect x="936.6" y="466.0" width="20" height="24" fill="none" stroke="#8C8C8C" stroke-width="1.5"/><rect x="936.6" y="522.0" width="20" height="24" fill="none" stroke="#8C8C8C" stroke-width="1.5"/><rect x="936.6" y="550.0" width="20" height="24" fill="none" stroke="#8C8C8C" stroke-width="1.5"/><rect x="1016.2" y="382.0" width="20" height="24" fill="none" stroke="#8C8C8C" stroke-width="1.5"/><rect x="1016.2" y="438.0" width="20" height="24" fill="none" stroke="#8C8C8C" stroke-width="1.5"/><rect x="1016.2" y="466.0" width="20" height="24" fill="none" stroke="#8C8C8C" stroke-width="1.5"/><rect x="1016.2" y="494.0" width="20" height="24" fill="none" stroke="#8C8C8C" stroke-width="1.5"/><rect x="1016.2" y="522.0" width="20" height="24" fill="none" stroke="#8C8C8C" stroke-width="1.5"/><rect x="1016.2" y="550.0" width="20" height="24" fill="none" stroke="#8C8C8C" stroke-width="1.5"/><rect x="1095.8" y="354.0" width="20" height="24" fill="#000000" stroke="#8C8C8C" stroke-width="1.5"/><rect x="1095.8" y="410.0" width="20" height="24" fill="none" stroke="#8C8C8C" stroke-width="1.5"/><rect x="1095.8" y="466.0" width="20" height="24" fill="#000000" stroke="#8C8C8C" stroke-width="1.5"/><rect x="1095.8" y="522.0" width="20" height="24" fill="none" stroke="#8C8C8C" stroke-width="1.5"/><rect x="1095.8" y="550.0" width="20" height="24" fill="none" stroke="#8C8C8C" stroke-width="1.5"/><rect x="1175.4" y="382.0" width="20" height="24" fill="none" stroke="#8C8C8C" stroke-width="1.5"/><rect x="1175.4" y="410.0" width="20" height="24" fill="none" stroke="#8C8C8C" stroke-width="1.5"/><rect x="1175.4" y="466.0" width="20" height="24" fill="#000000" stroke="#8C8C8C" stroke-width="1.5"/><rect x="1175.4" y="522.0" width="20" height="24" fill="none" stroke="#8C8C8C" stroke-width="1.5"/><line x1="853" y1="338" x2="1279" y2="338" stroke="#000000" stroke-width="4"/><path d="M 1036 590 C 1042 522, 1030 494.8, 1040 454" stroke="#000000" stroke-width="5" fill="none"/><path d="M 1040 454 Q 1011.2283357507472 430, 982 432" stroke="#000000" stroke-width="3" fill="none"/><path d="M 1040 454 Q 1042.76577244692 430, 1046 419" stroke="#000000" stroke-width="3" fill="none"/><path d="M 1040 454 Q 1058.0707286754741 430, 1076 425" stroke="#000000" stroke-width="3" fill="none"/><path d="M 1040 454 Q 1073.7987031659368 430, 1108 461" stroke="#000000" stroke-width="3" fill="none"/><path d="M 1040 454 Q 1053.2565233777432 430, 1067 493" stroke="#000000" stroke-width="3" fill="none"/><path d="M 1040 454 Q 1024.795893752888 430, 1010 486" stroke="#000000" stroke-width="3" fill="none"/><path d="M 285 590 C 291 490, 279 450, 289 390" stroke="#000000" stroke-width="5" fill="none"/><path d="M 289 390 Q 265.67180377042655 366, 242 378" stroke="#000000" stroke-width="3" fill="none"/><path d="M 289 390 Q 283.3711423085506 366, 278 357" stroke="#000000" stroke-width="3" fill="none"/><path d="M 289 390 Q 307.6719359369964 366, 326 367" stroke="#000000" stroke-width="3" fill="none"/><path d="M 289 390 Q 318.01768532514416 366, 347 405" stroke="#000000" stroke-width="3" fill="none"/><path d="M 289 390 Q 297.1024287675808 366, 305 425" stroke="#000000" stroke-width="3" fill="none"/><path d="M 289 390 Q 274.63948730489 366, 260 427" stroke="#000000" stroke-width="3" fill="none"/><line x1="98" y1="623" x2="812" y2="623" stroke="#8C8C8C" stroke-width="2"/><line x1="133" y1="652" x2="804" y2="652" stroke="#EAEAEA" stroke-width="2"/><line x1="215" y1="683" x2="985" y2="683" stroke="#8C8C8C" stroke-width="2"/><line x1="164" y1="717" x2="644" y2="717" stroke="#EAEAEA" stroke-width="2"/><line x1="236" y1="751" x2="938" y2="751" stroke="#8C8C8C" stroke-width="2"/><line x1="210" y1="780" x2="662" y2="780" stroke="#EAEAEA" stroke-width="2"/><circle cx="955" cy="130" r="46" fill="none" stroke="#8C8C8C" stroke-width="3"/></svg>