<svg xmlns="http://www.w3.org/2000/svg" viewBox="0 0 1200 800" role="img" aria-label="Architectural plate"><rect width="1200" height="800" fill="#111111"/><line x1="0" y1="572" x2="1200" y2="572" stroke="#8C8C8C" stroke-width="2"/><rect x="93" y="209" width="189" height="363" fill="none" stroke="#FFFFFF" stroke-width="3"/><rect x="110.0" y="414.8" width="20" height="24" fill="none" stroke="#8C8C8C" stroke-width="1.5"/><rect x="110.0" y="487.4" width="20" height="24" fill="#FFFFFF" stroke="#8C8C8C" stroke-width="1.5"/><rect x="137.0" y="269.6" width="20" height="24" fill="none" stroke="#8C8C8C" stroke-width="1.5"/><rect x="137.0" y="342.2" width="20" height="24" fill="none" stroke="#8C8C8C" stroke-width="1.5"/><rect x="137.0" y="414.8" width="20" height="24" fill="none" stroke="#8C8C8C" stroke-width="1.5"/><rect x="137.0" y="487.4" width="20" height="24" fill="none" stroke="#8C8C8C" stroke-width="1.5"/><rect x="164.0" y="269.6" width="20" height="24" fill="#FFFFFF" stroke="#8C8C8C" stroke-width="1.5"/><rect x="164.0" y="414.8" width="20" height="24" fill="none" stroke="#8C8C8C" stroke-width="1.5"/><rect x="191.0" y="269.6" width="20" height="24" fill="#FFFFFF" stroke="#8C8C8C" stroke-width="1.5"/><rect x="191.0" y="342.2" width="20" height="24" fill="#FFFFFF" stroke="#8C8C8C" stroke-width="1.5"/><rect x="191.0" y="414.8" width="20" height="24" fill="none" stroke="#8C8C8C" stroke-width="1.5"/><rect x="191.0" y="487.4" width="20" height="24" fill="none" stroke="#8C8C8C" stroke-width="1.5"/><rect x="218.0" y="269.6" width="20" height="24" fill="none" stroke="#8C8C8C" stroke-width="1.5"/><rect x="218.0" y="414.8" width="20" height="24" fill="#FFFFFF" stroke="#8C8C8C" stroke-width="1.5"/><rect x="218.0" y="487.4" width="20" height="24" fill="#FFFFFF" stroke="#8C8C8C" stroke-width="1.5"/><rect x="245.0" y="269.6" width="20" height="24" fill="#FFFFFF" stroke="#8C8C8C" stroke-width="1.5"/><rect x="245.0" y="414.8" width="20" height="24" fill="#FFFFFF" stroke="#8C8C8C" stroke-width="1.5"/><line x1="79" y1="209" x2="296" y2="209" stroke="#FFFFFF" stroke-width="4"/><rect x="359" y="110" width="322" height="462" fill="none" stroke="#FFFFFF" stroke-width="3"/><rect x="413.4" y="149.3" width="20" height="24" fill="#FFFFFF" stroke="#8C8C8C" stroke-width="1.5"/><rect x="413.4" y="252.0" width="20" height="24" fill="none" stroke="#8C8C8C" stroke-width="1.5"/><rect x="413.4" y="354.7" width="20" height="24" fill="#FFFFFF" stroke="#8C8C8C" stroke-width="1.5"/><rect x="413.4" y="457.3" width="20" height="24" fill="none" stroke="#8C8C8C" stroke-width="1.5"/><rect x="477.8" y="149.3" width="20" height="24" fill="none" stroke="#8C8C8C" stroke-width="1.5"/><rect x="477.8" y="200.7" width="20" height="24" fill="#FFFFFF" stroke="#8C8C8C" stroke-width="1.5"/><rect x="477.8" y="252.0" width="20" height="24" fill="none" stroke="#8C8C8C" stroke-width="1.5"/><rect x="477.8" y="303.3" width="20" height="24" fill="none" stroke="#8C8C8C" stroke-width="1.5"/><rect x="477.8" y="354.7" width="20" height="24" fill="none" stroke="#8C8C8C" stroke-width="1.5"/><rect x="477.8" y="457.3" width="20" height="24" fill="none" stroke="#8C8C8C" stroke-width="1.5"/><rect x="542.2" y="149.3" width="20" height="24" fill="none" stroke="#8C8C8C" stroke-width="1.5"/><rect x="542.2" y="354.7" width="20" height="24" fill="none" stroke="#8C8C8C" stroke-width="1.5"/><rect x="542.2" y="406.0" width="20" height="24" fill="none" stroke="#8C8C8C" stroke-width="1.5"/><rect x="542.2" y="508.7" width="20" height="24" fill="none" stroke="#8C8C8C" stroke-width="1.5"/><rect x="606.6" y="149.3" width="20" height="24" fill="none" stroke="#8C8C8C" stroke-width="1.5"/><rect x="606.6" y="252.0" width="20" height="24" fill="none" stroke="#8C8C8C" stroke-width="1.5"/><rect x="606.6" y="354.7" width="20" height="24" fill="#FFFFFF" stroke="#8C8C8C" stroke-width="1.5"/><rect x="606.6" y="457.3" width="20" height="24" fill="none" stroke="#8C8C8C" stroke-width="1.5"/><rect x="606.6" y="508.7" width="20" height="24" fill="none" stroke="#8C8C8C" stroke-width="1.5"/><line x1="345" y1="110" x2="695" y2="110" stroke="#FFFFFF" stroke-width="4"/><rect x="759" y="92" width="373" height="480" fill="none" stroke="#FFFFFF" stroke-width="3"/><rect x="802.3" y="176.0" width="20" height="24" fill="none" stroke="#8C8C8C" stroke-width="1.5"/><rect x="802.3" y="272.0" width="20" height="24" fill="#FFFFFF" stroke="#8C8C8C" stroke-width="1.5"/><rect x="802.3" y="368.0" width="20" height="24" fill="none" stroke="#8C8C8C" stroke-width="1.5"/><rect x="802.3" y="464.0" width="20" height="24" fill="none" stroke="#8C8C8C" stroke-width="1.5"/><rect x="855.6" y="176.0" width="20" height="24" fill="none" stroke="#8C8C8C" stroke-width="1.5"/><rect x="855.6" y="272.0" width="20" height="24" fill="#FFFFFF" stroke="#8C8C8C" stroke-width="1.5"/><rect x="855.6" y="368.0" width="20" height="24" fill="none" stroke="#8C8C8C" stroke-width="1.5"/><rect x="855.6" y="464.0" width="20" height="24" fill="none" stroke="#8C8C8C" stroke-width="1.5"/><rect x="908.9" y="176.0" width="20" height="24" fill="none" stroke="#8C8C8C" stroke-width="1.5"/><rect x="908.9" y="272.0" width="20" height="24" fill="none" stroke="#8C8C8C" stroke-width="1.5"/><rect x="908.9" y="368.0" width="20" height="24" fill="none" stroke="#8C8C8C" stroke-width="1.5"/><rect x="908.9" y="464.0" width="20" height="24" fill="none" stroke="#8C8C8C" stroke-width="1.5"/><rect x="962.1" y="176.0" width="20" height="24" fill="none" stroke="#8C8C8C" stroke-width="1.5"/><rect x="962.1" y="368.0" width="20" height="24" fill="#FFFFFF" stroke="#8C8C8C" stroke-width="1.5"/><rect x="962.1" y="464.0" width="20" height="24" fill="none" stroke="#8C8C8C" stroke-width="1.5"/><rect x="1015.4" y="176.0" width="20" height="24" fill="none" stroke="#8C8C8C" stroke-width="1.5"/><rect x="1068.7" y="176.0" width="20" height="24" fill="#FFFFFF" stroke="#8C8C8C" stroke-width="1.5"/><rect x="1068.7" y="272.0" width="20" height="24" fill="none" stroke="#8C8C8C" stroke-width="1.5"/><rect x="1068.7" y="368.0" width="20" height="24" fill="#FFFFFF" stroke="#8C8C8C" stroke-width="1.5"/><rect x="1068.7" y="464.0" width="20" height="24" fill="#FFFFFF" stroke="#8C8C8C" stroke-width="1.5"/><line x1="745" y1="92" x2="1146" y2="92" stroke="#FFFFFF" stroke-width="4"/><path d="M 802 572 C 808 492, 796 460, 806 412" stroke="#FFFFFF" stroke-width="5" fill="none"/><path d="M 806 412 Q 785.4723850244533 388, 765 396" stroke="#FFFFFF" stroke-width="3" fill="none"/><path d="M 806 412 Q 806.2659683313237 388, 807 375" stroke="#FFFFFF" stroke-width="3" fill="none"/><path d="M 806 412 Q 828.4640804550822 388, 851 389" stroke="#FFFFFF" stroke-width="3" fill="none"/><path d="M 806 412 Q 826.8225585212574 388, 848 426" stroke="#FFFFFF" stroke-width="3" fill="none"/><path d="M 806 412 Q 815.1210222497052 388, 824 441" stroke="#FFFFFF" stroke-width="3" fill="none"/><path d="M 806 412 Q 783.1028505043264 388, 760 439" stroke="#FFFFFF" stroke-width="3" fill="none"/><path d="M 569 572 C 575 466.5, 563 424.3, 573 361" stroke="#FFFFFF" stroke-width="5" fill="none"/><path d="M 573 361 Q 550.5533436828035 337, 528 340" stroke="#FFFFFF" stroke-width="3" fill="none"/><path d="M 573 361 Q 572.24490354413 337, 571 316" stroke="#FFFFFF" stroke-width="3" fill="none"/><path d="M 573 361 Q 592.5929062658236 337, 612 340" stroke="#FFFFFF" stroke-width="3" fill="none"/><path d="M 573 361 Q 600.5532732291514 337, 628 368" stroke="#FFFFFF" stroke-width="3" fill="none"/><path d="M 573 361 Q 580.4792056198278 337, 588 394" stroke="#FFFFFF" stroke-width="3" fill="none"/><path d="M 573 361 Q 551.0108790639761 337, 529 389" stroke="#FFFFFF" stroke-width="3" fill="none"/><line x1="191" y1="603" x2="688" y2="603" stroke="#8C8C8C" stroke-width="2"/><line x1="45" y1="635" x2="544" y2="635" stroke="#333333" stroke-width="2"/><line x1="146" y1="661" x2="642" y2="661" stroke="#8C8C8C" stroke-width="2"/><line x1="224" y1="693" x2="738" y2="693" stroke="#333333" stroke-width="2"/><line x1="81" y1="725" x2="591" y2="725" stroke="#8C8C8C" stroke-width="2"/><line x1="199" y1="765" x2="1078" y2="765" stroke="#333333" stroke-width="2"/></svg>